<?xml version="1.0" encoding="UTF-8"?>
<!DOCTYPE svg PUBLIC "-//W3C//DTD SVG 1.1//EN" "http://www.w3.org/Graphics/SVG/1.1/DTD/svg11.dtd">
<!-- Creator: CorelDRAW -->
<svg xmlns="http://www.w3.org/2000/svg" xml:space="preserve" width="503px" height="470px" version="1.1" style="shape-rendering:geometricPrecision; text-rendering:geometricPrecision; image-rendering:optimizeQuality; fill-rule:evenodd; clip-rule:evenodd"
viewBox="0 0 503 470"
 xmlns:xlink="http://www.w3.org/1999/xlink"
 xmlns:xodm="http://www.corel.com/coreldraw/odm/2003">
 <defs>
  <style type="text/css">
   <![CDATA[
    .fil4 {fill:#E6E7E8;fill-rule:nonzero}
    .fil6 {fill:#D2D3D5;fill-rule:nonzero}
    .fil15 {fill:black;fill-rule:nonzero}
    .fil10 {fill:#263138;fill-rule:nonzero}
    .fil7 {fill:#3F7BFF;fill-rule:nonzero}
    .fil3 {fill:#DFDFDF;fill-rule:nonzero}
    .fil0 {fill:#E6E6E6;fill-rule:nonzero}
    .fil1 {fill:#EFEFEF;fill-rule:nonzero}
    .fil5 {fill:#F9F9F9;fill-rule:nonzero}
    .fil12 {fill:#FF5652;fill-rule:nonzero}
    .fil11 {fill:#FF8A7B;fill-rule:nonzero}
    .fil2 {fill:white;fill-rule:nonzero}
    .fil13 {fill:black;fill-rule:nonzero;fill-opacity:0.200000}
    .fil16 {fill:black;fill-rule:nonzero;fill-opacity:0.301961}
    .fil17 {fill:#3F7BFF;fill-rule:nonzero;fill-opacity:0.301961}
    .fil8 {fill:white;fill-rule:nonzero;fill-opacity:0.301961}
    .fil14 {fill:black;fill-rule:nonzero;fill-opacity:0.400000}
    .fil9 {fill:#3F7BFF;fill-rule:nonzero;fill-opacity:0.600000}
   ]]>
  </style>
 </defs>
 <g id="Camada_x0020_1">
  <metadata id="CorelCorpID_0Corel-Layer"/>
  <g id="_2560956801088">
   <g>
    <g>
     <polygon class="fil0" points="182.81,299.8 97.13,299.8 91.92,239.8 177.61,239.8 "/>
     <polygon class="fil1" points="187.25,299.8 101.56,299.8 96.36,239.8 182.05,239.8 "/>
     <polygon class="fil2" points="113.28,286.92 110.42,252.68 170.33,252.68 173.19,286.92 "/>
    </g>
    <g>
     <polygon class="fil0" points="202.07,411.72 192.02,411.72 192.02,299.8 202.07,299.8 "/>
     <polygon class="fil1" points="205.25,411.72 198.26,411.72 198.26,299.8 205.25,299.8 "/>
     <polygon class="fil1" points="107.94,312.16 205.25,312.16 205.25,299.8 107.94,299.8 "/>
     <polygon class="fil0" points="111.38,411.72 101.32,411.72 101.32,312.16 111.38,312.16 "/>
     <polygon class="fil1" points="114.55,411.72 107.57,411.72 107.57,312.16 114.55,312.16 "/>
     <polygon class="fil0" points="39.82,411.72 29.76,411.72 29.76,312.16 39.82,312.16 "/>
     <polygon class="fil1" points="42.99,411.72 36.01,411.72 36.01,312.16 42.99,312.16 "/>
     <polygon class="fil0" points="138.45,411.72 128.4,411.72 128.4,312.16 138.45,312.16 "/>
     <polygon class="fil1" points="141.62,411.72 134.64,411.72 134.64,312.16 141.62,312.16 "/>
     <polygon class="fil0" points="107.94,312.16 29.76,312.16 29.76,299.8 107.94,299.8 "/>
    </g>
   </g>
   <polygon class="fil3" points="416.04,189.09 98.58,189.09 98.58,20.75 416.04,20.75 "/>
   <polygon class="fil4" points="416.04,189.09 98.58,189.09 98.58,20.75 416.04,20.75 "/>
   <polygon class="fil2" points="410.86,183.9 410.86,25.94 103.77,25.94 103.77,183.9 "/>
   <g>
    <polygon class="fil4" points="228.11,189.09 286.09,20.75 190.4,20.75 132.42,189.09 "/>
    <polygon class="fil4" points="320.21,189.09 378.19,20.75 306.01,20.75 248.03,189.09 "/>
   </g>
   <polygon class="fil0" points="495.28,411.72 469.58,411.72 469.58,250.94 495.28,250.94 "/>
   <polygon class="fil5" points="488.52,411.72 495.28,411.72 495.28,399.34 481.44,399.34 "/>
   <polygon class="fil0" points="258.29,411.72 232.58,411.72 232.58,250.94 258.29,250.94 "/>
   <polygon class="fil5" points="495.28,408.38 252.39,408.38 252.39,250.94 495.28,250.94 "/>
   <polygon class="fil5" points="259.15,411.72 252.39,411.72 252.39,399.34 266.24,399.34 "/>
   <g>
    <g>
     <path class="fil6" d="M490.68 301.74l-233.69 0 0 -44.46 233.69 0 0 44.46zm-232.4 -1.29l0 0 231.11 0 0 -41.88 -231.11 0 0 41.88z"/>
     <path class="fil6" d="M449.54 278.87l-146.87 0c-6.83,0 -13.39,-5.51 -18.02,-15.1l-0.44 -0.92 183.8 0 -0.45 0.92c-4.63,9.59 -11.19,15.1 -18.02,15.1zm-163.27 -14.73l0 0c4.37,8.55 10.31,13.44 16.4,13.44l146.87 0c6.09,0 12.03,-4.89 16.4,-13.44l-179.67 0z"/>
    </g>
    <g>
     <path class="fil6" d="M490.68 351.9l-233.69 0 0 -44.47 233.69 0 0 44.47zm-232.4 -1.29l0 0 231.11 0 0 -41.89 -231.11 0 0 41.89z"/>
     <path class="fil6" d="M449.54 329.02l-146.87 0c-6.83,0 -13.39,-5.5 -18.02,-15.1l-0.44 -0.92 183.8 0 -0.45 0.92c-4.63,9.6 -11.19,15.1 -18.02,15.1zm-163.27 -14.73l0 0c4.37,8.55 10.31,13.44 16.4,13.44l146.87 0c6.1,0 12.03,-4.89 16.4,-13.44l-179.67 0z"/>
    </g>
    <g>
     <path class="fil6" d="M490.68 402.05l-233.69 0 0 -44.47 233.69 0 0 44.47zm-232.4 -1.29l0 0 231.11 0 0 -41.89 -231.11 0 0 41.89z"/>
     <path class="fil6" d="M449.54 379.17l-146.87 0c-6.83,0 -13.39,-5.5 -18.02,-15.09l-0.44 -0.93 183.8 0 -0.45 0.93c-4.63,9.59 -11.19,15.09 -18.02,15.09zm-163.27 -14.73l0 0c4.37,8.56 10.31,13.44 16.4,13.44l146.87 0c6.1,0 12.03,-4.88 16.4,-13.44l-179.67 0z"/>
    </g>
   </g>
   <g>
    <polygon class="fil6" points="86.06,272.21 86.06,275.33 84.06,275.33 82.41,299.8 58.11,299.8 56.46,275.33 54.46,275.33 54.46,272.21 "/>
    <path class="fil6" d="M78.06 211.47c-2,-14.58 -21.67,-18.74 -46.64,-19.28 -23.76,-0.51 -31.37,-8.91 -31.37,-8.91 0,0 0.08,34.04 34.31,46.36 32.51,11.7 45.7,-3.57 43.7,-18.17z"/>
    <path class="fil6" d="M65.92 244.52c0.42,-6 9.99,-17.02 33.02,-12.01 16.65,3.62 22.84,-5.01 22.84,-5.01 0,0 -1.54,24.36 -26.58,31.69 -23.78,6.96 -30.01,-4.13 -29.28,-14.67z"/>
    <path class="fil6" d="M71.17 281.4c0.26,0 0.51,-0.11 0.68,-0.32 1.67,-1.97 0.31,-6.69 -1.58,-13.23 -2.43,-8.4 -5.45,-18.84 -2.89,-26.42 1.44,-4.29 3.23,-8.06 4.95,-11.71 3.62,-7.65 6.74,-14.25 4.14,-21.14 -0.18,-0.46 -0.69,-0.69 -1.15,-0.52 -0.46,0.17 -0.69,0.69 -0.51,1.15 2.33,6.18 -0.5,12.17 -4.08,19.75 -1.67,3.52 -3.56,7.52 -5.03,11.9 -2.74,8.11 0.37,18.85 2.86,27.48 1.47,5.09 2.99,10.35 1.94,11.6 -0.32,0.37 -0.27,0.93 0.1,1.25 0.17,0.14 0.37,0.21 0.57,0.21z"/>
   </g>
   <path class="fil6" d="M502.74 455.39c0,8.07 -112.02,14.61 -250.2,14.61 -138.18,0 -250.19,-6.54 -250.19,-14.61 0,-8.07 112.01,-14.61 250.19,-14.61 138.18,0 250.2,6.54 250.2,14.61z"/>
   <g>
    <polygon class="fil7" points="252.49,384.17 69.25,384.17 59.22,89.49 242.46,89.49 "/>
    <g>
     <polygon class="fil7" points="261.64,375.03 78.4,375.03 68.37,80.34 251.6,80.34 "/>
     <polygon class="fil8" points="261.64,375.03 78.4,375.03 68.37,80.34 251.6,80.34 "/>
    </g>
    <g>
     <path class="fil7" d="M214.41 164.86c0.96,28.47 -21.33,51.54 -49.79,51.54 -28.47,0 -52.33,-23.07 -53.3,-51.54 -0.97,-28.46 21.32,-51.54 49.79,-51.54 28.46,0 52.33,23.08 53.3,51.54z"/>
     <path class="fil2" d="M205.4 164.86c0.25,7.34 -1.38,14.24 -4.45,20.26 -6.72,13.26 -20.47,22.28 -36.64,22.28 -16.17,0 -30.53,-9.02 -38.16,-22.28 -3.48,-6.02 -5.58,-12.92 -5.83,-20.26 -0.8,-23.5 17.6,-42.54 41.09,-42.54 23.5,0 43.19,19.04 43.99,42.54z"/>
     <path class="fil9" d="M200.95 185.12c-6.72,13.26 -20.47,22.28 -36.64,22.28 -16.17,0 -30.53,-9.02 -38.16,-22.28 10.47,-7.16 23.18,-11.33 37.02,-11.33 13.83,0 26.83,4.17 37.78,11.33z"/>
     <path class="fil9" d="M181.32 150.3c0.35,10.47 -7.84,18.95 -18.31,18.95 -10.46,0 -19.24,-8.48 -19.59,-18.95 -0.36,-10.46 7.84,-18.95 18.3,-18.95 10.47,0 19.24,8.49 19.6,18.95z"/>
    </g>
    <polygon class="fil2" points="224.83,268.31 107.94,268.31 107.15,245.08 224.04,245.08 "/>
    <polygon class="fil2" points="226.24,309.83 109.35,309.83 108.56,286.6 225.45,286.6 "/>
    <path class="fil7" d="M181.13 289.79l-28.17 3.83c-1.16,0.16 -1.92,1.21 -1.7,2.33l3.7 18.88c0.22,1.13 1.34,1.92 2.5,1.76l28.17 -3.83c1.16,-0.16 1.92,-1.21 1.7,-2.33l-3.7 -18.88c-0.22,-1.12 -1.35,-1.92 -2.5,-1.76zm-8.1 19.12l0 0 -5.1 0.7 -0.51 -6.09c-1.08,-0.48 -1.87,-1.45 -2.09,-2.58 -0.36,-1.84 0.88,-3.56 2.78,-3.81 1.88,-0.26 3.72,1.03 4.08,2.88 0.22,1.13 -0.16,2.25 -1,2.99l1.84 5.91z"/>
    <path class="fil7" d="M178.35 288.78c-1.03,0.14 -2.03,-0.56 -2.22,-1.56l-0.36 -1.85c-1,-5.09 -5.86,-8.92 -11.13,-8.47 -5.62,0.49 -9.4,5.46 -8.34,10.84l0.41 2.12c0.2,1 -0.47,1.93 -1.5,2.07 -1.03,0.14 -2.03,-0.56 -2.22,-1.57l-0.36 -1.8c-1.39,-7.08 3.08,-13.9 10.29,-15.15 7.59,-1.32 15.07,3.79 16.52,11.18l0.42 2.12c0.19,1 -0.48,1.93 -1.51,2.07z"/>
    <polygon class="fil7" points="206.95,342.35 130.86,342.35 130.35,327.23 206.43,327.23 "/>
    <path class="fil10" d="M170.24 256.7c0.08,2.34 -1.76,4.25 -4.11,4.25 -2.34,0 -4.31,-1.91 -4.39,-4.25 -0.08,-2.35 1.76,-4.25 4.1,-4.25 2.35,0 4.32,1.9 4.4,4.25z"/>
    <path class="fil10" d="M151.95 256.7c0.08,2.34 -1.76,4.25 -4.11,4.25 -2.34,0 -4.31,-1.91 -4.39,-4.25 -0.08,-2.35 1.76,-4.25 4.1,-4.25 2.35,0 4.32,1.9 4.4,4.25z"/>
    <path class="fil10" d="M133.66 256.7c0.08,2.34 -1.76,4.25 -4.11,4.25 -2.34,0 -4.31,-1.91 -4.39,-4.25 -0.08,-2.35 1.76,-4.25 4.1,-4.25 2.35,0 4.32,1.9 4.4,4.25z"/>
    <path class="fil10" d="M188.53 256.7c0.08,2.34 -1.76,4.25 -4.11,4.25 -2.34,0 -4.31,-1.91 -4.39,-4.25 -0.08,-2.35 1.76,-4.25 4.1,-4.25 2.35,0 4.32,1.9 4.4,4.25z"/>
    <path class="fil10" d="M206.82 256.7c0.07,2.34 -1.76,4.25 -4.11,4.25 -2.34,0 -4.31,-1.91 -4.39,-4.25 -0.08,-2.35 1.76,-4.25 4.1,-4.25 2.35,0 4.31,1.9 4.4,4.25z"/>
   </g>
   <g>
    <path class="fil11" d="M360.82 143.17c1.72,2.75 3.14,5.4 4.62,8.14 1.47,2.72 2.8,5.51 4.1,8.33 2.57,5.66 4.86,11.49 6.58,17.72 0.23,0.76 0.41,1.57 0.6,2.37l0.28 1.19 0.14 0.6 0.17 0.98c0.37,2.62 0.04,4.76 -0.4,6.65 -0.93,3.76 -2.42,6.76 -4.02,9.62 -3.26,5.67 -7.07,10.49 -11.47,15.06l-5.43 -4.11c2.68,-5.08 5.33,-10.41 7.27,-15.53 0.95,-2.55 1.74,-5.14 1.97,-7.27 0.12,-1.05 0.04,-1.94 -0.1,-2.28l-0.51 -1.58c-0.22,-0.64 -0.4,-1.29 -0.66,-1.94 -1.86,-5.21 -4.22,-10.44 -6.8,-15.59 -2.54,-5.14 -5.35,-10.37 -8.12,-15.25l11.78 -7.11z"/>
    <path class="fil11" d="M357.37 207.87l-5.93 3.15 6.81 7.97c0,0 4.26,-2.87 4.45,-7.26l-5.33 -3.86z"/>
    <polygon class="fil11" points="343.47,215.93 350.77,221.73 358.25,218.99 351.44,211.02 "/>
    <path class="fil10" d="M318.55 100.95c-0.15,0.72 -0.65,1.22 -1.12,1.13 -0.47,-0.1 -0.73,-0.76 -0.58,-1.48 0.14,-0.71 0.64,-1.22 1.11,-1.12 0.47,0.09 0.73,0.75 0.59,1.47z"/>
    <path class="fil12" d="M317.97 102.18c0,0 -2.47,3.81 -4.68,5.44 1.03,1.45 3.3,1.34 3.3,1.34l1.38 -6.78z"/>
    <path class="fil11" d="M315.64 127.5l0.06 -8.46 11.2 1.35c0,0 -0.19,7.28 -6.45,9.41l-4.81 -2.3z"/>
    <polygon class="fil11" points="318.86,112.95 326.75,115.22 326.9,120.39 315.7,119.04 "/>
    <path class="fil13" d="M326.75 115.22l-7.88 -2.28 -1.54 2.95c0.2,4.99 3.24,9.09 7.28,10.94 2.19,-2.88 2.28,-6.44 2.28,-6.44l-0.14 -5.17z"/>
    <path class="fil10" d="M321.98 97.5c0.11,0 0.21,-0.04 0.3,-0.12 0.17,-0.16 0.18,-0.43 0.02,-0.6 -1.62,-1.75 -3.57,-1.44 -3.66,-1.42 -0.23,0.03 -0.39,0.26 -0.35,0.49 0.04,0.23 0.26,0.39 0.49,0.35 0.07,-0.01 1.6,-0.23 2.89,1.16 0.08,0.09 0.2,0.14 0.31,0.14z"/>
    <path class="fil11" d="M338.47 114.01c-1.3,6.64 -2.09,15.84 2.56,20.27 0,0 -1.82,6.73 -14.16,6.73 -13.56,0 -6.52,-5.91 -6.52,-5.91 5.64,-1.75 5.59,-8.17 4.3,-13.33l13.82 -7.76z"/>
    <path class="fil7" d="M343.57 138.72c1.21,-1.71 1.16,-7.12 -0.13,-8.07 -2.08,-1.54 -10.99,-1.9 -22.99,0.86 1.29,5.24 -1.48,7.98 -1.48,7.98l24.6 -0.77z"/>
    <path class="fil7" d="M383.9 445.06c-0.91,0.2 -1.82,0.25 -2.26,-0.12 -0.19,-0.16 -0.37,-0.46 -0.21,-1 0.08,-0.28 0.27,-0.5 0.55,-0.63 1.23,-0.59 4.05,0.56 4.17,0.61 0.07,0.03 0.13,0.11 0.13,0.19 0,0.09 -0.05,0.17 -0.12,0.2 -0.43,0.21 -1.35,0.56 -2.26,0.75zm-1.48 -1.45l0 0c-0.09,0.02 -0.18,0.05 -0.25,0.09 -0.17,0.08 -0.28,0.2 -0.33,0.36 -0.11,0.39 0.03,0.51 0.08,0.55 0.49,0.42 2.3,0.04 3.58,-0.48 -0.87,-0.3 -2.27,-0.69 -3.08,-0.52z"/>
    <path class="fil7" d="M386.11 444.33c-0.03,0.01 -0.07,0.01 -0.11,0 -1.02,-0.3 -3.22,-1.86 -3.24,-2.89 -0.01,-0.19 0.06,-0.53 0.55,-0.7 0.31,-0.11 0.63,-0.08 0.95,0.08 1.21,0.62 1.98,3.13 2.01,3.24 0.02,0.07 0,0.16 -0.05,0.21 -0.03,0.03 -0.07,0.05 -0.11,0.06zm-2.57 -3.21l0 0c-0.03,0.01 -0.06,0.02 -0.09,0.03 -0.27,0.09 -0.27,0.22 -0.26,0.28 0.01,0.6 1.46,1.83 2.52,2.32 -0.26,-0.72 -0.87,-2.15 -1.65,-2.55 -0.17,-0.09 -0.35,-0.12 -0.52,-0.08z"/>
    <path class="fil7" d="M316.89 446.59c-1.17,0 -2.29,-0.16 -2.67,-0.69 -0.13,-0.18 -0.24,-0.49 0.02,-0.94 0.14,-0.25 0.37,-0.41 0.68,-0.5 1.51,-0.41 4.68,1.4 4.82,1.47 0.07,0.05 0.12,0.14 0.1,0.23 -0.01,0.08 -0.08,0.16 -0.17,0.17 -0.58,0.12 -1.7,0.26 -2.78,0.26zm-1.44 -1.76l0 0c-0.15,0 -0.29,0.01 -0.42,0.05 -0.2,0.05 -0.33,0.15 -0.42,0.3 -0.15,0.26 -0.1,0.4 -0.04,0.47 0.42,0.59 2.72,0.6 4.4,0.36 -0.84,-0.43 -2.46,-1.18 -3.52,-1.18z"/>
    <path class="fil7" d="M319.63 446.34c-0.03,0 -0.06,-0.01 -0.09,-0.02 -1.09,-0.49 -3.26,-2.46 -3.1,-3.48 0.04,-0.24 0.21,-0.54 0.8,-0.6 0.44,-0.05 0.84,0.08 1.19,0.37 1.16,0.94 1.4,3.39 1.41,3.49 0.01,0.08 -0.02,0.15 -0.09,0.2 -0.03,0.02 -0.08,0.04 -0.12,0.04zm-2.22 -3.68l0 0c-0.04,0 -0.08,0 -0.12,0 -0.39,0.04 -0.42,0.2 -0.42,0.25 -0.1,0.61 1.37,2.15 2.49,2.83 -0.12,-0.72 -0.44,-2.18 -1.2,-2.8 -0.23,-0.19 -0.47,-0.28 -0.75,-0.28z"/>
    <polygon class="fil11" points="329.61,446.12 320.53,446.12 319.63,425.1 328.71,425.1 "/>
    <polygon class="fil11" points="396.23,441.92 387.36,443.84 378.45,424.26 387.32,422.34 "/>
    <path class="fil10" d="M386.5 442.95l9.97 -2.16c0.36,-0.08 0.73,0.11 0.89,0.44l3.46 7.51c0.35,0.78 -0.12,1.69 -0.96,1.86 -3.49,0.69 -5.23,0.85 -9.61,1.8 -2.7,0.59 -8.78,2.07 -12.51,2.88 -3.64,0.78 -5.01,-2.77 -3.55,-3.44 6.51,-2.97 9.23,-5.59 10.99,-8.03 0.32,-0.44 0.79,-0.75 1.32,-0.86z"/>
    <path class="fil10" d="M320.59 445.07l9.91 0c0.38,0 0.7,0.26 0.78,0.62l1.79 8.07c0.19,0.83 -0.45,1.63 -1.31,1.61 -3.57,-0.06 -8.74,-0.27 -13.23,-0.27 -5.26,0 -9.79,0.29 -15.96,0.29 -3.72,0 -4.76,-3.77 -3.2,-4.11 7.1,-1.55 12.9,-1.72 19.04,-5.5 0.66,-0.41 1.4,-0.71 2.18,-0.71z"/>
    <g>
     <path class="fil7" d="M357.28 136.33c8.51,1.95 15.52,23.67 15.52,23.67l-17.08 13.02c0,0 -6.27,-5.91 -9.06,-16.78 -2.93,-11.38 1.92,-21.9 10.62,-19.91z"/>
     <path class="fil14" d="M357.28 136.33c8.51,1.95 15.52,23.67 15.52,23.67l-17.08 13.02c0,0 -6.27,-5.91 -9.06,-16.78 -2.93,-11.38 1.92,-21.9 10.62,-19.91z"/>
    </g>
    <path class="fil11" d="M312.55 162.25c-2.13,2.29 -4.24,4.32 -6.43,6.42 -1.09,1.04 -2.2,2.07 -3.34,3.07l-1.72 1.5 -0.43 0.37c-0.21,0.18 -0.46,0.39 -0.73,0.6 -0.57,0.42 -1.19,0.91 -2.5,1.48 -0.69,0.26 -1.57,0.61 -3.13,0.64 -0.75,0.02 -1.75,-0.11 -2.72,-0.48 -0.98,-0.36 -1.93,-0.99 -2.58,-1.64 -1.35,-1.35 -1.75,-2.54 -2.02,-3.34 -0.25,-0.82 -0.32,-1.41 -0.37,-1.92 -0.08,-1 -0.03,-1.68 0.03,-2.31 0.06,-0.62 0.14,-1.15 0.24,-1.66 0.38,-1.99 0.91,-3.59 1.5,-5.2 0.59,-1.59 1.24,-3.12 2,-4.66 0.82,-1.65 1.61,-2.84 2.4,-4.21 3.19,-5.33 6.93,-10.2 10.91,-14.79 4.06,-4.55 8.32,-8.72 13.22,-12.54l4.75 4.89c-3.33,4.46 -6.61,9.25 -9.64,13.96 -3.03,4.76 -5.84,9.6 -8.26,14.52 -0.56,1.21 -1.25,2.54 -1.63,3.56 -0.46,1.11 -0.87,2.31 -1.21,3.48 -0.34,1.16 -0.61,2.37 -0.74,3.26 -0.02,0.21 -0.04,0.4 -0.04,0.51 0,0.1 0.02,0.15 0.01,-0.12 -0.01,-0.15 -0.02,-0.37 -0.16,-0.84 -0.16,-0.45 -0.41,-1.3 -1.49,-2.4 -0.53,-0.52 -1.31,-1.06 -2.13,-1.35 -0.79,-0.31 -1.61,-0.4 -2.17,-0.4 -1.2,0.03 -1.73,0.27 -2.08,0.4 -0.63,0.27 -0.65,0.35 -0.64,0.32l0.49 -0.45 1.55 -1.42 3.09 -2.89c2.04,-1.93 4.09,-3.98 6.03,-5.88l9.94 9.52z"/>
    <path class="fil13" d="M349.99 152.3c4.62,4.57 6.13,12.9 6.48,20.14l-0.75 0.58c0,0 -6.28,-5.92 -9.07,-16.78 -0.17,-0.68 -0.32,-1.36 -0.44,-2.03l3.78 -1.91z"/>
    <g>
     <path class="fil7" d="M303.52 145.43c-1.85,9.81 -3.01,29.94 2.37,69.82l48.55 0c0.33,-7.45 -4.35,-43.81 2.84,-78.92 0,0 -8.32,-1.67 -16.25,-2.05 -6.21,-0.3 -15.19,-0.5 -20.64,0 -2.28,0.21 -4.51,0.53 -6.5,0.89 -5.25,0.93 -9.38,5.02 -10.37,10.26z"/>
     <path class="fil14" d="M303.52 145.43c-1.85,9.81 -3.01,29.94 2.37,69.82l48.55 0c0.33,-7.45 -4.35,-43.81 2.84,-78.92 0,0 -8.32,-1.67 -16.25,-2.05 -6.21,-0.3 -15.19,-0.5 -20.64,0 -2.28,0.21 -4.51,0.53 -6.5,0.89 -5.25,0.93 -9.38,5.02 -10.37,10.26z"/>
    </g>
    <path class="fil13" d="M310.95 159.92l-8.77 -2.1c-0.27,5.31 -0.3,11.9 0.1,20.04 4.04,-4.59 9.19,-11.76 8.67,-17.94z"/>
    <g>
     <polygon class="fil15" points="319.63,425.11 320.1,435.94 329.18,435.94 328.71,425.11 "/>
     <polygon class="fil15" points="387.32,422.35 378.45,424.27 383.05,434.36 391.92,432.44 "/>
    </g>
    <path class="fil11" d="M342.78 104.29c-2.33,8.7 -3.25,13.91 -8.62,17.53 -8.08,5.44 -18.13,-0.8 -18.45,-10.02 -0.28,-8.3 3.58,-21.14 12.92,-22.89 9.2,-1.73 16.49,6.68 14.15,15.38z"/>
    <path class="fil10" d="M322.41 104.63c-0.43,-1.17 -2.44,-10.16 -0.55,-12.5 1.89,-2.33 23.37,-0.65 26.55,2.47 5.27,5.19 1.61,9.82 -4.16,15.79 -4.34,4.49 -4.5,9.55 -6.69,10.3 -3.84,1.3 -9.79,0.08 -10.98,-4.02 -1.19,-4.09 -4.17,-12.04 -4.17,-12.04z"/>
    <path class="fil10" d="M345.8 84.38c-7.59,-3.24 -21.83,0.34 -29.51,-1.51 -0.28,3.98 2.12,10.36 9.81,12.08 0,0 10.91,2.13 19.36,1.78 8.44,-0.34 6.79,-9.61 0.34,-12.35z"/>
    <path class="fil10" d="M346.99 94.88c0,0 4.7,0.53 8.03,-1.54 1.43,3.43 -6.38,4.37 -8.03,1.54z"/>
    <path class="fil11" d="M326.55 104.98c-0.14,2.36 -1.23,4.57 -2.55,6.02 -1.98,2.18 -4.04,0.83 -4.39,-1.83 -0.32,-2.39 0.33,-6.4 2.75,-7.6 2.38,-1.19 4.35,0.72 4.19,3.41z"/>
    <path class="fil7" d="M323.11 215.25c0,0 10.3,69.36 15.96,95.35 6.19,28.45 39.4,122.6 39.4,122.6l16.25 -3.51c0,0 -23.22,-76.73 -28.42,-116.51 -3.99,-30.56 -11.86,-97.93 -11.86,-97.93l-31.33 0z"/>
    <path class="fil10" d="M374.58 427.78c-0.07,0.01 3.02,5.87 3.02,5.87l18.28 -3.95 -1.54 -5.5 -19.76 3.58z"/>
    <path class="fil16" d="M329.62 239.96c11.91,2.34 10.65,46.75 9.22,69.6 -3.43,-16.15 -8.46,-47.22 -11.9,-69.28 0.79,-0.39 1.68,-0.52 2.68,-0.32z"/>
    <path class="fil7" d="M305.89 215.25c0,0 -1.25,67.86 -0.26,95.54 1.03,28.79 11.08,123.06 11.08,123.06l15.38 0c0,0 0.56,-92.59 1.25,-120.86 0.74,-30.83 4.46,-97.74 4.46,-97.74l-31.91 0z"/>
    <path class="fil10" d="M313.75 427.72c-0.07,0 0.87,6.38 0.87,6.38l18.7 0 0.51 -5.69 -20.08 -0.69z"/>
    <g>
     <path class="fil7" d="M322.55 148.41c4.35,11.73 -21.22,25.54 -21.22,25.54l-11.07 -14.23c0,0 7.39,-14.7 16.45,-21.32 11.19,-8.19 12.53,1.08 15.84,10.01z"/>
     <path class="fil14" d="M322.55 148.41c4.35,11.73 -21.22,25.54 -21.22,25.54l-11.07 -14.23c0,0 7.39,-14.7 16.45,-21.32 11.19,-8.19 12.53,1.08 15.84,10.01z"/>
    </g>
   </g>
   <path class="fil7" d="M469.28 29.68c0,16.39 -20.85,29.68 -46.57,29.68 -25.72,0 -46.56,-13.29 -46.56,-29.68 0,-16.39 20.84,-29.68 46.56,-29.68 25.72,0 46.57,13.29 46.57,29.68z"/>
   <path class="fil2" d="M405.9 44.62c-2.59,0 -5.11,-0.78 -7.31,-2.27 -2.94,-2.01 -4.89,-5.05 -5.5,-8.56 -1.16,-6.72 3.3,-13.42 9.95,-14.93 5.47,-1.24 11.03,1.09 13.96,5.83l29.9 -6.17c2.42,-0.5 4.88,0.95 5.48,3.22 0.31,1.21 0.13,2.46 -0.53,3.52 -0.66,1.06 -1.7,1.79 -2.92,2.04l-0.78 0.16c-0.24,0.05 -0.43,0.19 -0.54,0.4 -0.11,0.21 -0.13,0.45 -0.05,0.67l0.53 1.37c0.36,0.93 0.02,1.97 -0.8,2.48 -0.63,0.4 -1.07,1.08 -1.15,1.82 -0.11,0.92 -0.72,1.62 -1.56,1.8l-0.61 0.12c-0.84,0.17 -1.68,-0.23 -2.14,-1.02 -0.54,-0.94 -1.61,-1.42 -2.67,-1.2 -1.06,0.22 -1.86,1.09 -1.99,2.16 -0.11,0.91 -0.72,1.61 -1.55,1.79l-0.6 0.12c-0.83,0.17 -1.68,-0.23 -2.14,-1.03 -0.38,-0.65 -1.05,-1.1 -1.79,-1.21 -0.96,-0.15 -1.68,-0.97 -1.72,-1.97l-0.06 -1.47c-0.01,-0.23 -0.12,-0.45 -0.3,-0.59 -0.19,-0.15 -0.41,-0.2 -0.66,-0.15l-9.52 1.96c-0.81,5.4 -4.88,9.72 -10.26,10.83 -0.89,0.19 -1.78,0.28 -2.67,0.28zm-2.58 -24.5l0 0c-5.98,1.36 -10,7.39 -8.96,13.45 0.55,3.16 2.31,5.9 4.96,7.71 2.65,1.81 5.84,2.45 8.99,1.8 4.98,-1.03 8.72,-5.12 9.3,-10.18l0.05 -0.46 10.43 -2.16c0.6,-0.12 1.23,0.02 1.71,0.4 0.49,0.38 0.78,0.95 0.8,1.56l0.06 1.47c0.01,0.37 0.28,0.69 0.61,0.74 1.15,0.17 2.15,0.84 2.73,1.84 0.14,0.25 0.41,0.49 0.76,0.42l0.6 -0.13c0.34,-0.07 0.5,-0.39 0.53,-0.68 0.2,-1.62 1.41,-2.93 3.01,-3.26 1.61,-0.33 3.23,0.4 4.05,1.81 0.14,0.24 0.41,0.48 0.76,0.41l0.61 -0.13c0.34,-0.07 0.5,-0.39 0.53,-0.67 0.14,-1.15 0.78,-2.16 1.76,-2.77 0.29,-0.18 0.41,-0.58 0.27,-0.93l-0.52 -1.37c-0.22,-0.57 -0.18,-1.21 0.11,-1.75 0.3,-0.54 0.81,-0.92 1.42,-1.04l0.78 -0.17c0.87,-0.18 1.61,-0.69 2.08,-1.45 0.47,-0.75 0.6,-1.65 0.38,-2.51 -0.43,-1.62 -2.21,-2.65 -3.97,-2.28l-30.8 6.35 -0.24 -0.4c-2.58,-4.51 -7.72,-6.77 -12.8,-5.62zm2.6 19.73l0 0c-1.6,0 -3.16,-0.47 -4.53,-1.37 -1.84,-1.21 -3.1,-3.07 -3.55,-5.23 -0.45,-2.16 -0.02,-4.37 1.19,-6.22 1.21,-1.84 3.07,-3.1 5.23,-3.54 2.17,-0.45 4.38,-0.03 6.22,1.18 1.84,1.21 3.1,3.07 3.55,5.24 0.44,2.16 0.02,4.37 -1.19,6.21 -1.21,1.85 -3.07,3.11 -5.24,3.55 -0.56,0.12 -1.12,0.18 -1.68,0.18zm0.04 -15.25l0 0c-0.48,0 -0.96,0.05 -1.44,0.15 -1.82,0.38 -3.39,1.44 -4.41,2.99 -1.03,1.56 -1.38,3.42 -1.01,5.25 0.38,1.82 1.44,3.39 3,4.42 1.56,1.02 3.42,1.38 5.24,1 1.83,-0.38 3.4,-1.44 4.42,-3 1.02,-1.55 1.38,-3.41 1,-5.24 -0.37,-1.83 -1.44,-3.4 -2.99,-4.42 -1.15,-0.76 -2.47,-1.15 -3.81,-1.15z"/>
   <path class="fil9" d="M400.11 67c0,5.39 -6.85,9.76 -15.31,9.76 -8.45,0 -15.3,-4.37 -15.3,-9.76 0,-5.38 6.85,-9.75 15.3,-9.75 8.46,0 15.31,4.37 15.31,9.75z"/>
   <path class="fil17" d="M371.32 82.67c0,2.21 -2.81,4 -6.28,4 -3.47,0 -6.28,-1.79 -6.28,-4 0,-2.21 2.81,-4.01 6.28,-4.01 3.47,0 6.28,1.8 6.28,4.01z"/>
  </g>
 </g>
</svg>
