<?xml version="1.0" encoding="UTF-8"?>
<!DOCTYPE svg PUBLIC "-//W3C//DTD SVG 1.1//EN" "http://www.w3.org/Graphics/SVG/1.1/DTD/svg11.dtd">
<!-- Creator: CorelDRAW -->
<svg xmlns="http://www.w3.org/2000/svg" xml:space="preserve" width="214px" height="52px" version="1.1" style="shape-rendering:geometricPrecision; text-rendering:geometricPrecision; image-rendering:optimizeQuality; fill-rule:evenodd; clip-rule:evenodd"
viewBox="0 0 214 52"
 xmlns:xlink="http://www.w3.org/1999/xlink"
 xmlns:xodm="http://www.corel.com/coreldraw/odm/2003">
 <defs>
  <style type="text/css">
   <![CDATA[
    .fil0 {fill:#3571A3}
    .fil1 {fill:#143527;fill-rule:nonzero}
    .fil2 {fill:#FEAF42;fill-rule:nonzero}
    .fil4 {fill:url(#id0);fill-rule:nonzero}
    .fil3 {fill:url(#id1);fill-rule:nonzero}
   ]]>
  </style>
  <linearGradient id="id0" gradientUnits="userSpaceOnUse" x1="59.95" y1="36.98" x2="61.12" y2="38.76">
   <stop offset="0" style="stop-opacity:1; stop-color:#FFE052"/>
   <stop offset="1" style="stop-opacity:1; stop-color:#FFC331"/>
  </linearGradient>
  <linearGradient id="id1" gradientUnits="userSpaceOnUse" x1="59.29" y1="35.9" x2="60.3" y2="37.56">
   <stop offset="0" style="stop-opacity:1; stop-color:#387EB8"/>
   <stop offset="1" style="stop-opacity:1; stop-color:#366994"/>
  </linearGradient>
 </defs>
 <g id="Camada_x0020_1">
  <metadata id="CorelCorpID_0Corel-Layer"/>
  <g id="_1737937375712">
   <g>
    <path class="fil0" d="M41.85 46.46c-1.58,0.85 -3.96,0.98 -5.85,1.23 -6.28,0.83 -13.43,1.39 -19.71,0.95 0.52,-0.22 5.59,-0.3 6.67,-0.36 4.21,-0.26 8.44,-0.63 12.6,-1.24 0.99,-0.14 1.98,-0.3 2.97,-0.48 1.12,-0.21 1.97,-0.22 2.39,-1.08 -1.97,0.19 -4.23,0.67 -6.28,0.94 -2.19,0.29 -4.32,0.5 -6.52,0.68 -3.53,0.28 -7.06,0.4 -10.6,0.26 -0.96,-0.04 -2.39,-0.25 -3.23,-0.23 2.48,-0.14 4.99,-0.1 7.47,-0.23 5.48,-0.29 11.97,-0.85 17.35,-1.93 1.35,-0.27 2.03,-0.22 2.59,-1.22 -0.73,0.02 -2.31,0.42 -3.16,0.55 -1.06,0.17 -2.12,0.32 -3.19,0.46 -2.22,0.28 -4.43,0.49 -6.67,0.65 -4.9,0.37 -9.29,0.4 -14.18,0.22 0.63,0.11 3.1,-0.04 3.91,-0.07 6.2,-0.26 15.26,-1.27 21.33,-2.43 1.11,-0.21 2.39,-0.28 2.74,-1.19 -0.86,0.08 -1.99,0.41 -2.87,0.57 -7.32,1.4 -14.54,1.75 -22.02,1.68 0.39,-0.16 5.91,-0.42 6.96,-0.53 2.27,-0.22 4.46,-0.51 6.69,-0.82 2.17,-0.31 4.34,-0.68 6.45,-1.06 1.07,-0.19 2.08,-0.39 3.16,-0.6 1.05,-0.22 2.17,-0.34 2.5,-1.17 -0.68,0.02 -2.48,0.51 -3.29,0.68 -3.39,0.71 -7.01,1.24 -10.47,1.59 -2.57,0.25 -13.56,0.85 -15.36,0.17 2.9,0.02 5.51,0.05 8.43,-0.15 6.17,-0.42 12.54,-1.55 18.55,-2.92 1.08,-0.25 2.62,-0.41 2.93,-1.24 -8.13,2.14 -19.03,3.62 -27.41,3.66 -4.05,0.02 -14.84,-0.71 -16.23,-5.5 0.24,0.14 0.02,-0.02 0.26,0.19 7.81,6.98 29.5,3.03 40.8,0.76 0.97,-0.19 3.88,-1.02 4.63,-0.68 0.2,0.88 -0.52,1.89 -0.87,2.67 -0.33,0.74 -2.84,6.38 -3.12,6.75 -0.11,0.13 -0.15,0.16 -0.23,0.26 -0.18,0.22 -0.08,0.06 -0.12,0.21z"/>
    <path class="fil0" d="M42.92 21.33c-1.75,0.09 -4.52,-0.23 -6.3,-0.46 -3.18,-0.41 -3.27,-0.97 -5.61,-0.19 -2.95,0.98 -5.29,2.41 -7.7,4.15 -0.33,0.24 -0.59,0.49 -0.94,0.69 -0.36,0.33 -0.81,0.71 -1.19,0.9l-3.82 3.66c0.42,-1.37 2.8,-4.26 3.83,-5.06 0.11,-0.17 0.08,-0.16 0.28,-0.35 0.14,-0.14 0.23,-0.19 0.36,-0.29 0.34,-0.53 2.86,-2.35 3.53,-2.83l3.9 -2.4c-1.73,-0.66 -3.03,-1.38 -4.34,-2.57 -0.07,-0.06 -0.2,-0.18 -0.26,-0.23 -0.21,-0.15 -0.07,-0.07 -0.23,-0.12 0.11,-0.11 -0.1,-0.24 0.59,0.05 2.69,1.12 7.04,2.11 9.84,2.59 6.19,1.08 12.56,1.26 18.88,0.73 3.35,-0.28 2.7,0.06 4.14,-2.46 1.08,-1.9 2.64,-4.29 3.96,-6.01 0.28,-0.37 0.45,-0.58 0.74,-0.93 0.62,-0.75 0.57,-0.48 0.6,-0.88 -0.34,-0.22 -6.42,-0.96 -7.45,-1.13 -2.79,-0.45 -4.35,-0.72 -6.93,-1.69 0.09,-0.05 -0.15,-0.13 0.32,-0.07 4.21,0.19 8.61,0.62 12.83,0.95 3.81,0.3 4.98,-0.07 3.21,2.04 -1.82,2.18 -4.19,5.48 -5.75,7.98 -1.79,2.89 -1.08,3.2 -3.38,3.44 -3.07,0.31 -10.21,0.77 -13.11,0.49z"/>
    <path class="fil0" d="M66.28 14c-0.27,0.74 -2.44,4.16 -1.86,4.86 0.61,0.3 4.81,-1.12 5.62,-1.4 0.51,-0.18 1,-0.36 1.48,-0.54l0 2.05c-2.11,0.7 -4.31,1.17 -6.56,1.4 -1.26,0.12 -2.95,0.46 -3.39,-0.56 -0.51,-1.2 1.88,-5.04 2.44,-5.91 1.12,-1.75 2.44,-3.12 4.08,-4.41 1.05,-0.82 2.2,-1.49 3.43,-2l0 1.27c-0.78,0.48 -1.54,1.03 -2.06,1.51 -0.54,0.49 -0.84,0.82 -1.35,1.31 -0.38,0.38 -0.71,0.97 -1.14,1.39l-0.69 1.03z"/>
    <path class="fil0" d="M55.44 31.16c-0.48,0.34 -1.19,2.25 -1.46,3.02 -0.4,1.12 -0.56,2.49 -0.65,3.77 -0.24,3.04 0.03,5.24 1.17,7.62l0.13 0.31c-0.48,0.14 -0.95,0.4 -1.48,0.6 -7.76,3.01 -17.4,5.08 -25.68,5.03 -4.32,-0.07 -8.63,-0.25 -12.86,-1.19 -0.55,-0.12 -2.46,-0.65 -2.82,-0.64 0.14,-0.1 -0.02,-0.04 0.21,-0.09 7.58,0.83 15.28,1.22 22.89,0.33 1.38,-0.16 2.76,-0.36 4.13,-0.61l2.96 -0.58c0.33,-0.07 0.68,-0.1 0.94,-0.3 1.2,0.14 8.39,-2.46 9.63,-3.04 -0.35,-2.14 -0.92,-4.02 -0.68,-6.41 0.24,-2.24 0.45,-3.94 1.12,-6 0.93,-2.87 2.02,-4.67 3.93,-6.72 0.34,-0.37 0.53,-0.55 0.93,-0.85 0.19,-0.14 0.29,-0.24 0.51,-0.38 0.17,-0.12 0.37,-0.2 0.43,-0.34 0.84,-0.28 1.32,-0.67 2.37,-0.81 6.31,-0.83 8.06,8.99 6.84,13.71 -0.03,-2.5 0.17,-4.12 -0.61,-6.51 -0.6,-1.85 -1.66,-3.52 -3.02,-4.29 -4.27,-2.39 -8.5,2.89 -8.93,4.37z"/>
    <path class="fil0" d="M70.18 3.71c-0.03,0.01 -0.06,0.02 -0.08,0.03 -0.09,0.03 0.04,0.12 -0.61,0.06 -3.67,-0.34 -7.16,-0.3 -10.85,-0.01 -0.74,0.05 -9.53,1.04 -10.44,1.65 -0.81,-0.09 -5.86,1.47 -6.93,1.81 -2.16,0.68 -4.43,1.5 -6.41,2.37 -3.62,1.59 -5.52,2.51 -8.86,4.38 -0.45,0.25 -0.95,0.59 -1.38,0.78 -0.94,0.44 -1.09,0.21 -1.83,0.4 -0.02,0.01 -0.05,0.02 -0.07,0.03 -1.33,-0.44 -6.57,1.13 -7.8,1.63 -3.25,1.31 -6.3,3.35 -8.56,5.65 -0.43,0.43 -0.67,0.78 -1.13,1.24 -0.77,0.76 -2.41,3.15 -3,4.11l-1.65 2.93c0,-0.02 -0.03,0.04 -0.04,0.06 0.29,-2.8 2.7,-6.83 4.06,-8.33 0.9,-1 1.66,-1.85 2.71,-2.71 3.75,-3.08 8.53,-4.85 13.57,-5.59 0.85,-0.12 1.92,-0.16 2.73,-0.33 1.05,-0.22 9.7,-6.8 24.11,-9.65 5.55,-1.09 11.19,-1.53 16.9,-1.11l5.56 0.6z"/>
    <path class="fil0" d="M66.51 39.7l-0.04 0.27c-0.06,0.08 -0.65,1.61 -0.77,1.88 -1.3,2.85 -4.51,6.55 -7.97,5.21 -1.85,-0.73 -2.46,-2.53 -2.67,-2.65 -0.32,-1 -0.76,-1.91 -0.79,-3.07 0.69,1.76 0.64,2.21 1.91,3.41 0.91,0.87 2.71,1.1 4.09,0.45 4.63,-2.18 6.78,-10.82 3.66,-14.9 -2.16,-2.82 -5.62,-1.28 -6.96,0.57 0.19,-0.77 2.13,-2.38 3.11,-2.84 3.31,-1.57 5.85,0.64 6.78,4.17 0.51,1.96 0.32,3.38 0.16,5.37 -0.12,0.55 -0.06,0.63 -0.23,1.13 -0.11,0.34 -0.17,0.69 -0.28,1z"/>
    <path class="fil0" d="M50.73 23.85c-1.2,0.44 -3.34,1.49 -3.89,1.69l-16.51 7.33 0.58 1.91c0.84,0.01 4.32,0.06 4.83,-0.19 1.22,-0.61 8.17,-5.24 9.06,-5.61 -0.01,0.02 -0.03,0.05 -0.05,0.07l-0.68 0.65c-0.25,0.2 -0.48,0.42 -0.74,0.64l-5.86 5.01c-0.72,0.66 -0.76,0.77 -1.28,0.8l-6.07 -0.02 -2.02 -4.55c2.1,-0.67 4.28,-1.53 6.4,-2.27l19.06 -6.77c0.31,0.02 0.17,-0.04 -0.12,0.1l-2.71 1.21z"/>
    <path class="fil0" d="M71.52 22.93l-3.36 1.55c0.34,-0.29 1.96,-1.18 3.36,-1.95l0 0.4z"/>
    <path class="fil0" d="M71.52 36.05c-0.3,0.12 -0.6,0.23 -0.88,0.32 0,-0.13 -0.22,0.24 0.03,-0.02 0.12,-0.12 0.03,0 0.07,-0.09 0.11,-0.03 0.39,-0.15 0.78,-0.33l0 0.12z"/>
   </g>
   <g>
    <path class="fil1" d="M74.56 22.81l0 -21.1 0.47 -0.03c2.42,-0.16 4.34,-0.23 5.75,-0.23 3.07,0 5.34,0.52 6.81,1.57 1.75,1.25 2.62,3.08 2.62,5.48 0,1.19 -0.26,2.27 -0.78,3.24 -0.51,0.97 -1.25,1.74 -2.2,2.29 -1.53,0.9 -3.58,1.34 -6.16,1.34 -0.08,0 -0.59,-0.02 -1.54,-0.06l0 7.5 -4.97 0zm4.97 -17.32l0 5.89c0.33,0.06 0.74,0.09 1.22,0.09 1.62,0 2.79,-0.23 3.49,-0.71 0.71,-0.48 1.06,-1.25 1.06,-2.32 0,-2.06 -1.31,-3.1 -3.93,-3.1 -0.63,0 -1.25,0.05 -1.84,0.15zm12.17 2.74l4.82 0c0.57,2.56 1.37,5.22 2.38,7.97l0.15 0.48c0.06,0.1 0.11,0.25 0.15,0.45l0.23 2.94 0.27 -2.97 0.18 -0.42 0.68 -1.75c0.76,-1.97 1.44,-4.11 2.06,-6.43l0.06 -0.27 4.76 0 -0.24 0.74c-1.39,4.33 -2.96,8.37 -4.7,12.12l-1.25 2.73c-0.83,1.79 -1.54,3.37 -2.11,4.76 -0.42,1.01 -0.65,1.57 -0.69,1.67l-4.46 0c0.12,-0.28 0.27,-0.63 0.44,-1.06 0.18,-0.42 0.32,-0.77 0.42,-1.02 0.18,-0.42 0.79,-1.84 1.85,-4.26l0.35 -0.71 -0.35 -0.78c-1.25,-2.75 -2.38,-5.63 -3.37,-8.63 -0.57,-1.76 -1.12,-3.62 -1.63,-5.56zm29.34 0.51l0 3.71c-0.99,-0.59 -2.06,-0.89 -3.19,-0.89 -1.33,0 -2.4,0.34 -3.21,1.03 -0.81,0.68 -1.22,1.59 -1.22,2.72 0,1.19 0.4,2.14 1.2,2.84 0.81,0.71 1.88,1.06 3.23,1.06 1.13,0 2.24,-0.29 3.34,-0.86l0 3.72c-1.39,0.69 -2.89,1.04 -4.5,1.04 -2.44,0 -4.37,-0.67 -5.8,-2 -1.43,-1.32 -2.14,-3.13 -2.14,-5.41 0,-2.34 0.76,-4.23 2.29,-5.67 1.53,-1.44 3.53,-2.16 6.01,-2.16 1.35,0 2.68,0.29 3.99,0.87zm2.08 6.93c0,-2.4 0.68,-4.31 2.04,-5.71 1.36,-1.41 3.21,-2.12 5.55,-2.12 2.28,0 4.08,0.68 5.4,2.03 1.32,1.35 1.98,3.19 1.98,5.53 0,2.4 -0.68,4.3 -2.04,5.7 -1.36,1.4 -3.2,2.1 -5.52,2.1 -2.28,0 -4.09,-0.68 -5.42,-2.03 -1.33,-1.35 -1.99,-3.18 -1.99,-5.5zm5.42 -3.1c-0.5,0.7 -0.75,1.68 -0.75,2.95 0,1.27 0.25,2.25 0.75,2.95 0.49,0.69 1.19,1.04 2.08,1.04 0.87,0 1.56,-0.35 2.05,-1.04 0.5,-0.7 0.75,-1.68 0.75,-2.95 0,-1.25 -0.25,-2.23 -0.73,-2.93 -0.49,-0.7 -1.17,-1.06 -2.04,-1.06 -0.91,0 -1.62,0.35 -2.11,1.04zm21.78 -4.43l0 -7.65 4.58 0 0 21.87c-2.2,0.42 -4.19,0.63 -5.95,0.63 -2.8,0 -4.92,-0.63 -6.35,-1.88 -1.44,-1.24 -2.16,-3.08 -2.16,-5.5 0,-2.34 0.71,-4.21 2.14,-5.61 1.43,-1.4 3.34,-2.1 5.74,-2.1 0.72,0 1.38,0.08 2,0.24zm0 11.04l0 -7.35c-0.48,-0.16 -1,-0.24 -1.55,-0.24 -1.17,0 -2.07,0.35 -2.71,1.03 -0.63,0.68 -0.95,1.65 -0.95,2.9 0,1.23 0.31,2.17 0.94,2.81 0.62,0.65 1.52,0.97 2.69,0.97 0.48,0 1,-0.04 1.58,-0.12zm21.78 -2.35l-9.55 0c0.16,1.86 1.48,2.8 3.95,2.8 1.85,0 3.48,-0.47 4.88,-1.4l0 3.54c-1.74,0.91 -3.59,1.37 -5.53,1.37 -2.44,0 -4.34,-0.67 -5.7,-2 -1.36,-1.32 -2.04,-3.18 -2.04,-5.56 0,-2.34 0.67,-4.21 2.01,-5.61 1.34,-1.4 3.12,-2.1 5.34,-2.1 2.13,0 3.77,0.65 4.94,1.95 1.17,1.3 1.76,3.14 1.76,5.52 0,0.44 -0.01,0.82 -0.03,1.16l-0.03 0.33zm-9.49 -3.18l5.35 0c-0.16,-1.71 -0.99,-2.56 -2.5,-2.56 -0.77,0 -1.41,0.23 -1.92,0.68 -0.5,0.46 -0.81,1.08 -0.93,1.88zm13.03 9.1l0 -21.07c2.42,-0.16 4.61,-0.23 6.58,-0.23 2.89,0 5.06,0.44 6.48,1.33 1.47,0.98 2.21,2.41 2.21,4.32 0,2.32 -1.21,3.86 -3.63,4.61 2.83,0.83 4.25,2.58 4.25,5.24 0,2.36 -1.13,4.04 -3.39,5.03 -1.37,0.61 -3.62,0.92 -6.76,0.92 -1.74,0 -3.66,-0.05 -5.74,-0.15zm4.76 -17.59l0 5.03 0.63 0 0.83 0c1.41,0 2.41,-0.14 3,-0.44 0.76,-0.42 1.13,-1.1 1.13,-2.06 0,-1.7 -1.2,-2.55 -3.6,-2.55 -0.67,0 -1.33,0 -1.99,0.02zm0 8.72l0 5.24 0.63 0c0.25,0.02 0.56,0.04 0.92,0.06 0.36,0.02 0.57,0.03 0.65,0.03 2.68,0 4.02,-0.86 4.02,-2.59 0,-1.86 -1.39,-2.8 -4.17,-2.8 -0.57,0 -1.02,0.01 -1.33,0.03l-0.72 0.03zm14.55 8.93l0 -21.1 0.48 -0.03c1.79,-0.14 3.71,-0.2 5.77,-0.2 3.04,0 5.27,0.5 6.7,1.51 1.74,1.19 2.62,2.95 2.62,5.27 0,2.68 -1.29,4.61 -3.87,5.8 0.57,0.88 1.23,1.79 1.96,2.74 1.75,2.34 3.29,4.27 4.61,5.77l0.27 0.3 -6.07 0c-0.3,-0.34 -0.63,-0.77 -1.01,-1.31 -1.81,-2.44 -3.25,-4.53 -4.35,-6.28l-0.23 -0.39 -0.78 0c-0.35,0 -0.66,0 -0.92,-0.02l-0.42 0 0 7.94 -4.76 0zm4.76 -17.44l0 5.72c0.38,0.08 0.83,0.12 1.34,0.12 1.63,0 2.8,-0.22 3.5,-0.66 0.7,-0.44 1.06,-1.17 1.06,-2.2 0,-1.99 -1.31,-2.98 -3.93,-2.98 -0.62,0 -1.09,-0.01 -1.43,-0.03l-0.54 0.03z"/>
    <path class="fil2" d="M80.89 45.65c2.04,0 3.81,-0.57 5.63,-1.99l-0.7 -1.1c-1.89,1.07 -2.77,1.62 -4.56,1.62 -3.14,0.03 -4.34,-4.21 -4.29,-6.75 0.05,-2.75 1.05,-6.56 4.39,-6.56 1.3,-0.02 2.49,0.28 3.64,1.02l0.65 -1.09c-1.22,-0.9 -2.77,-1.27 -4.56,-1.32 -4.27,-0.08 -6.34,4.21 -6.43,7.92 -0.1,3.57 2.14,8.25 6.2,8.25l0.03 0zm7.32 -5.81c0,3.02 1.6,5.86 4.96,5.89 3.39,-0.03 5.04,-2.87 5.04,-5.89 -0.03,-2.94 -1.87,-5.5 -5.01,-5.53 -3.12,0.03 -4.99,2.59 -4.99,5.53zm1.97 0c0,-1.97 0.5,-4.13 2.99,-4.28 2.35,0.12 3.04,2.31 3.04,4.28 0,2.1 -0.44,4.69 -2.99,4.76 -2.34,-0.02 -3.01,-2.66 -3.01,-4.76l-0.03 0zm19.32 5.66l0 -8.35c0,-1.47 -1.17,-2.42 -2.5,-2.71 -1.29,-0.3 -2.51,-0.05 -3.41,0.19 -1.15,0.3 -1.97,0.83 -2.89,1.5l0 9.37 1.82 0 0 -9.15c0.57,-0.39 1.49,-0.82 2.47,-0.84 1.59,-0.03 2.69,0.89 2.69,2.56l0 7.43 1.82 0zm6.8 0.23c1.6,0 2.94,-0.45 4.01,-1.15l-0.47 -0.95c-1,0.47 -1.85,0.9 -3.02,0.87 -2.06,-0.02 -3.11,-2.36 -3.11,-4.33 0,-2.07 0.97,-4.54 2.94,-4.64 0.85,-0.05 1.87,0.25 2.62,0.6l0.52 -0.97c-1.72,-1.07 -4.04,-1.15 -5.56,-0.1 -1.52,1.05 -2.37,3.06 -2.37,5.11 0,2.74 1.65,5.53 4.44,5.56zm14.28 -1.23l-0.42 -0.87c-0.92,0.45 -1.82,0.87 -3.07,0.9 -2.04,0.07 -3.49,-1.84 -3.29,-4.69l6.68 0c-0.05,-3.36 -1.17,-5.45 -4.21,-5.45 -3.19,0 -4.36,2.96 -4.39,5.83 0,1.84 0.73,3.56 1.92,4.58 1.3,1.1 3.34,1.08 4.91,0.63 0.73,-0.23 1.3,-0.55 1.87,-0.93zm-1.94 -5.73l-4.79 0c0.13,-1.57 0.75,-3.26 2.49,-3.26 1.62,0 2.32,1.69 2.32,3.29l-0.02 -0.03zm7.35 7.03c2.09,0 4.31,-1.1 4.34,-3.44 0,-1 -0.45,-1.64 -1.05,-2.12 -0.57,-0.45 -1.27,-0.7 -1.94,-0.97 -0.7,-0.27 -1.45,-0.57 -2,-0.82 -0.57,-0.25 -0.95,-0.6 -0.95,-1.22 0.03,-1.17 1.18,-1.72 2.22,-1.72 0.8,0.02 1.57,0.25 2.4,0.72l0.67 -1.07c-1,-0.55 -2.05,-0.92 -3.17,-0.92 -1.94,0 -3.81,1.14 -3.81,3.24 0,1.02 0.45,1.64 1.05,2.06 0.57,0.45 1.27,0.7 1.94,0.95 0.35,0.1 0.7,0.25 1.02,0.38 0.83,0.32 1.8,0.64 1.82,1.71 0.05,1.38 -1.37,1.92 -2.57,1.92 -0.97,-0.02 -2.06,-0.4 -2.81,-0.97l-0.65 1.05c0.95,0.72 2.22,1.22 3.49,1.22zm9.37 0c2.09,0 4.31,-1.1 4.34,-3.44 0,-1 -0.45,-1.64 -1.05,-2.12 -0.57,-0.45 -1.27,-0.7 -1.94,-0.97 -0.7,-0.27 -1.45,-0.57 -2,-0.82 -0.57,-0.25 -0.94,-0.6 -0.94,-1.22 0.02,-1.17 1.17,-1.72 2.21,-1.72 0.8,0.02 1.57,0.25 2.4,0.72l0.67 -1.07c-1,-0.55 -2.04,-0.92 -3.17,-0.92 -1.94,0 -3.81,1.14 -3.81,3.24 0,1.02 0.45,1.64 1.05,2.06 0.57,0.45 1.27,0.7 1.94,0.95 0.35,0.1 0.7,0.25 1.02,0.38 0.83,0.32 1.8,0.64 1.82,1.71 0.05,1.38 -1.37,1.92 -2.56,1.92 -0.98,-0.02 -2.07,-0.4 -2.82,-0.97l-0.65 1.05c0.95,0.72 2.22,1.22 3.49,1.22zm7.05 -0.3l1.8 0 0 -11.19 -1.8 0.6 0 10.59zm-0.3 -14.7c0,0.64 0.53,1.17 1.18,1.17 0.67,0 1.19,-0.53 1.19,-1.17 0,-0.68 -0.52,-1.2 -1.17,-1.2 -0.67,0 -1.2,0.52 -1.2,1.17l0 0.03zm4.84 9.04c0,3.02 1.59,5.86 4.96,5.89 3.39,-0.03 5.03,-2.87 5.03,-5.89 -0.02,-2.94 -1.86,-5.5 -5.01,-5.53 -3.11,0.03 -4.98,2.59 -4.98,5.53zm1.97 0c0,-1.97 0.5,-4.13 2.99,-4.28 2.34,0.12 3.04,2.31 3.04,4.28 0,2.1 -0.45,4.69 -2.99,4.76 -2.34,-0.02 -3.02,-2.66 -3.02,-4.76l-0.02 0zm19.31 5.66l0 -8.35c0,-1.47 -1.17,-2.42 -2.49,-2.71 -1.29,-0.3 -2.52,-0.05 -3.41,0.19 -1.15,0.3 -1.97,0.83 -2.89,1.5l0 9.37 1.82 0 0 -9.15c0.57,-0.39 1.49,-0.82 2.46,-0.84 1.6,-0.03 2.69,0.89 2.69,2.56l0 7.43 1.82 0zm10.79 -1.67l0 -6.3c0,-2.02 -1.79,-3.22 -3.61,-3.22 -1.49,0 -2.49,0.25 -3.79,0.95l0.45 1.04c0.97,-0.49 1.77,-0.77 2.87,-0.77 1.22,0 2.36,0.85 2.36,2.1l0 1.07c-0.99,0 -1.76,0 -2.96,0 -2.09,-0.03 -3.74,1.27 -3.76,3.39 -0.05,1.99 1.57,3.56 3.53,3.61 2.17,0.03 3.87,-0.82 4.91,-1.87zm-1.76 -0.25c-0.33,0.35 -1.3,0.92 -2.35,0.9 -1.44,0 -2.49,-1.2 -2.49,-2.44 0,-1.37 1.05,-2.17 2.44,-2.17 0.9,-0.03 1.82,-0.03 2.4,-0.03l0 3.74zm-4.24 -10.71l4.78 -2.37 -0.72 -1.47 -4.93 2.94 0.87 0.9zm13.38 2.81c0.25,0 0.68,0.08 1.03,0.15 0.19,-0.45 0.49,-1.02 0.72,-1.47 -1.52,-0.27 -2.57,-0.02 -3.67,0.37 -1.02,0.35 -1.92,0.95 -2.59,1.7l0 9.07 1.82 0 0 -8.82c0.65,-0.55 1.47,-1 2.67,-1l0.02 0zm4.09 9.82l1.79 0 0 -11.19 -1.79 0.6 0 10.59zm-0.3 -14.7c0,0.64 0.52,1.17 1.17,1.17 0.68,0 1.2,-0.53 1.2,-1.17 0,-0.68 -0.52,-1.2 -1.17,-1.2 -0.68,0 -1.2,0.52 -1.2,1.17l0 0.03zm13.31 13.03l0 -6.3c0,-2.02 -1.79,-3.22 -3.61,-3.22 -1.5,0 -2.49,0.25 -3.79,0.95l0.45 1.04c0.97,-0.49 1.77,-0.77 2.86,-0.77 1.23,0 2.37,0.85 2.37,2.1l0 1.07c-1,0 -1.77,0 -2.97,0 -2.09,-0.03 -3.73,1.27 -3.76,3.39 -0.05,1.99 1.57,3.56 3.54,3.61 2.17,0.03 3.86,-0.82 4.91,-1.87zm-1.77 -0.25c-0.32,0.35 -1.29,0.92 -2.34,0.9 -1.45,0 -2.49,-1.2 -2.49,-2.44 0,-1.37 1.04,-2.17 2.44,-2.17 0.9,-0.03 1.82,-0.03 2.39,-0.03l0 3.74z"/>
   </g>
   <g>
    <path class="fil3" d="M60.47 35.95c-0.72,-0.14 -0.74,0.18 -0.74,0.18l-0.06 0.32 0.69 0.14 -0.02 0.1 -0.96 -0.2c0,0 -0.45,-0.14 -0.6,0.58 -0.15,0.73 0.26,0.78 0.26,0.78l0.24 0.05 0.07 -0.33c0,0 0.07,-0.41 0.48,-0.32l0.68 0.13c0,0 0.38,0.09 0.45,-0.29l0.13 -0.62c0,0 0.13,-0.37 -0.62,-0.52zm-0.42 0.14c0.07,0.02 0.11,0.08 0.1,0.15 -0.02,0.07 -0.08,0.11 -0.15,0.1 0,0 0,0 0,0 -0.07,-0.01 -0.11,-0.08 -0.1,-0.15 0,0 0,0 0,0 0.01,-0.07 0.08,-0.11 0.15,-0.1l0 0z"/>
    <path class="fil4" d="M59.92 38.78c0.72,0.14 0.74,-0.18 0.74,-0.18l0.06 -0.32 -0.68 -0.14 0.02 -0.1 0.96 0.19c0,0 0.45,0.15 0.59,-0.58 0.15,-0.72 -0.26,-0.78 -0.26,-0.78l-0.24 -0.05 -0.07 0.34c0,0 -0.06,0.41 -0.47,0.32l-0.68 -0.13c0,0 -0.38,-0.09 -0.46,0.29l-0.13 0.62c0,0 -0.13,0.36 0.62,0.52l0 0zm0.42 -0.15c0,0 0,0 0,0 -0.06,-0.01 -0.11,-0.08 -0.09,-0.14 0,0 0,0 0,0 0.01,-0.07 0.08,-0.12 0.14,-0.1 0.07,0.01 0.12,0.08 0.1,0.15 -0.01,0.06 -0.08,0.11 -0.15,0.09l0 0z"/>
   </g>
  </g>
 </g>
</svg>
